<?xml version="1.0" encoding="utf-8"?>
<!-- Generator: Adobe Illustrator 21.0.2, SVG Export Plug-In . SVG Version: 6.00 Build 0)  -->
<svg version="1.1" id="Layer_1" xmlns="http://www.w3.org/2000/svg" xmlns:xlink="http://www.w3.org/1999/xlink" x="0px" y="0px"
	 viewBox="0 0 542 352" style="enable-background:new 0 0 542 352;" xml:space="preserve">
<style type="text/css">
	.st0{fill:#E4791D;}
	.st1{fill:#FFFFFF;}
	.st2{fill:#E4791D;stroke:#808285;stroke-miterlimit:10;}
	.st3{fill:none;stroke:#808285;stroke-miterlimit:10;}
</style>
<g>
	<path class="st0" d="M145.6,329.9c-65.9,0-100.9-38.1-96.1-93.6H3c-9.8,66.5,29.4,113,106.3,113c61,0,132.1-29.3,192.3-74.5
		C251.4,308.6,194.9,329.9,145.6,329.9z"/>
	<path class="st1" d="M418.6,116.7c2-49-30.5-82.3-90-82.3c-51,0-110.4,24.5-160.7,62.3c41.9-28.3,89.2-46.1,130.3-46.1
		c50.2,0,78.9,26.4,80.7,66.1H418.6z"/>
	<path class="st0" d="M319.3,3.7c-59.5,0-128.5,27.8-187.8,71.2l18.7,23.4c56.1-45.3,124.7-75.2,183-75.2
		c49.2,0,81.2,21.3,92.3,55.1C417.6,33,380.3,3.7,319.3,3.7z"/>
	<path class="st1" d="M142.4,302.5c-41.1,0-67.9-17.8-77.1-46.1c6.6,37.8,37.8,62.3,88.8,62.3c48.5,0,104.7-22.2,153.3-56.9
		l-15.9-19C245.3,278.9,189.8,302.5,142.4,302.5z"/>
</g>
<path class="st2" d="M452.4,189.5v-44.6c6,0,11.6,0,17.5,0v44.9c0,14.8-13.5,23.4-28.6,23.4c-15,0-29.2-8.6-29.2-23.4v-44.9
	c5.9,0,11.6,0,17.5,0v44.7c0,5.5,6.2,8.1,11.7,8.1C446.7,197.7,452.4,195,452.4,189.5z"/>
<path class="st2" d="M361.3,196.6H402c0,7.1,0,11.1,0,17c-19.3,0-39.2,0-58.3,0v-68.3c8.1,0,17.6,0,17.6,0S361.3,150.1,361.3,196.6z
	"/>
<g>
	<path class="st1" d="M61.8,171.1h36.4c3.6-14.7,13.8-26,31.5-26h0.8h15.2v17.1h-18.4v8.5h18.4v17.1h-18.4v8.5h18.4v17.1h-15.2h-0.8
		c-17.7,0-27.8-10.6-31.5-25.5H80c3.8,21.6,21.2,37.4,46.9,37.4c28.4,0,51.3-19.7,51.3-46s-21.4-45.6-49.7-45.6l-2-2.3v-14.7
		c36.4,0,70,28.8,70,62.6s-33.2,63-69.5,63s-63.9-29.2-65.1-63L61.8,171.1"/>
	<path class="st3" d="M61.8,171.1h36.4c3.6-14.7,13.8-26,31.5-26h0.8h15.2v17.1h-18.4v8.5h18.4v17.1h-18.4v8.5h18.4v17.1h-15.2h-0.8
		c-17.7,0-27.8-10.6-31.5-25.5H80c3.8,21.6,21.2,37.4,46.9,37.4c28.4,0,51.3-19.7,51.3-46s-21.4-45.6-49.7-45.6l-2-2.3v-14.7
		c36.4,0,70,28.8,70,62.6s-33.2,63-69.5,63s-63.9-29.2-65.1-63L61.8,171.1"/>
</g>
<path class="st2" d="M303.6,181.8h-0.4l-11.6,31.3h-17.4v-2.6l26.5-65.7h5.5l26.7,65.7v2.6h-17.4L303.6,181.8z"/>
<path class="st2" d="M33.4,176.2h0.4l11.6-31.3h17.4v2.6l-26.5,65.7h-5.5L4.1,147.5v-2.6h17.4L33.4,176.2z"/>
<polygon class="st2" points="539,144.9 521.5,144.9 510,165.7 508.9,165.7 497.6,144.9 480,144.9 481,146.6 498.5,178.7 
	480.3,211.4 479.3,213.2 496.7,213.2 508,193.1 509.3,193.1 521.4,213.2 538.8,213.2 538.8,211.4 520,179.2 538,146.7 "/>
<path class="st2" d="M263.4,210.6v2.5h-19.7L231.9,193h-9.2v20.1c-5.9,0-11.9,0-17.6,0c0-22.7,0-45.5,0-68.3c10,0,20.2,0,30.3,0
	c27.1,0.1,32,32.4,14.6,44.1L263.4,210.6z M235.3,160.5c-4.1-0.1-8.5,0-12.6,0c0,5.6,0,11.6,0,17.1h12.6
	C244.8,177.6,245.3,160.6,235.3,160.5z"/>
</svg>
