<?xml version="1.0" encoding="utf-8"?>
<!-- Generator: Adobe Illustrator 21.1.0, SVG Export Plug-In . SVG Version: 6.00 Build 0)  -->
<svg version="1.1" id="Layer_1" xmlns="http://www.w3.org/2000/svg" xmlns:xlink="http://www.w3.org/1999/xlink" x="0px" y="0px"
	 viewBox="0 0 542 157" style="enable-background:new 0 0 542 157;" xml:space="preserve">
<style type="text/css">
	.st0{fill:#FFFFFF;}
	.st1{fill:#808285;}
	.st2{fill:#E4791D;}
</style>
<g>
	<path class="st0" d="M333.2,153.5c0-11.7,0-23.3,0-35c5.1,0,10.3,0,15.4,0c16.8,0,16.8,26.1,0,26.1h-6.5v9
		C339.1,153.5,336.1,153.5,333.2,153.5z M348.5,126.5c-2.1,0-4.3,0-6.4,0c0,2.9,0,7.2,0,10h6.4C353.4,136.5,353.7,126.5,348.5,126.5
		z"/>
	<path class="st1" d="M333.2,153.5h0.5c0-11.7,0-23.3,0-35h-0.5v0.5c5.1,0,10.3,0,15.4,0c4.1,0,7.1,1.6,9.1,3.9c2,2.3,3,5.5,3,8.6
		c0,3.2-1,6.3-3,8.6c-2,2.3-5,3.9-9.1,3.9h-7v9.5h0.5l0-0.5c-3-0.1-6-0.1-8.9-0.1V153.5h0.5H333.2v0.5c2.9,0,5.9,0,8.9,0.1l0.5,0v-9
		h6c4.3,0,7.6-1.7,9.8-4.3c2.2-2.6,3.3-5.9,3.3-9.3c0-3.4-1.1-6.7-3.3-9.3c-2.2-2.6-5.5-4.3-9.8-4.3c-5.1,0-10.3,0-15.4,0h-0.5v0.5
		c0,11.7,0,23.3,0,35v0.5h0.5V153.5z M348.5,126.5V126c-2.1,0-4.3,0-6.4,0h-0.5v0.5c0,2.9,0,7.2,0,10v0.5h6.9c1.4,0,2.5-0.8,3.2-1.8
		c0.7-1.1,1-2.4,1-3.8c0-1.3-0.3-2.6-1-3.7c-0.7-1-1.8-1.7-3.3-1.7V126.5v0.5c1.1,0,1.9,0.5,2.4,1.3c0.6,0.8,0.8,1.9,0.8,3.1
		c0,1.2-0.3,2.4-0.9,3.2c-0.6,0.9-1.3,1.4-2.4,1.4h-6.4v0.5h0.5c0-2.8,0-7.1,0-10h-0.5v0.5c2.1,0,4.3,0,6.4,0V126.5z"/>
	<path class="st0" d="M397.4,152.2v1.3h-10l-6-10.3h-4.7v10.3c-3,0-6,0-9,0c0-11.7,0-23.3,0-35c5,0,10.3,0,15.4,0
		c13.8,0,16.3,16.6,7.4,22.6L397.4,152.2z M383.2,126.5c-2.1,0-4.3,0-6.4,0c0,2.9,0,6,0,8.8h6.4C388,135.2,388.3,126.5,383.2,126.5z
		"/>
	<path class="st1" d="M397.4,152.2h-0.5v0.8h-9.2l-6-10.3h-5.5v10.8h0.5V153c-3,0-6,0-9,0v0.5h0.5c0-11.7,0-23.3,0-35h-0.5v0.5
		c5,0,10.3,0,15.4,0c4.1,0,7.1,1.5,9.1,3.7c2,2.2,3,5.2,3,8.1c0,3.8-1.7,7.6-5,9.9l-0.4,0.3l7.2,11.5L397.4,152.2h-0.5H397.4
		l0.4-0.3l-6.9-11.1l-0.4,0.3l0.3,0.4c3.6-2.5,5.4-6.6,5.4-10.7c0-3.2-1.1-6.4-3.3-8.8c-2.2-2.4-5.5-4-9.8-4c-5.1,0-10.4,0-15.4,0
		h-0.5v0.5c0,11.7,0,23.3,0,35v0.5h0.5c3,0,6,0,9,0h0.5v-10.3h3.9l6,10.3h10.8v-1.9l-0.1-0.1L397.4,152.2z M383.2,126.5V126
		c-2.1,0-4.3,0-6.4,0h-0.5v0.5c0,2.9,0,6,0,8.8v0.5h6.9l0,0c1.4,0,2.5-0.7,3.2-1.7c0.7-1,1-2.2,1-3.4c0-1.2-0.3-2.3-1-3.2
		c-0.7-0.9-1.8-1.5-3.2-1.5V126.5v0.5c1.1,0,1.9,0.4,2.4,1.1c0.5,0.7,0.8,1.6,0.8,2.6c0,1-0.3,2-0.8,2.8c-0.6,0.7-1.3,1.2-2.4,1.3
		l0,0.5v-0.5h-6.4v0.5h0.5c0-2.8,0-5.9,0-8.8h-0.5v0.5c2.1,0,4.3,0,6.4,0V126.5z"/>
	<path class="st0" d="M400.7,136c0-24.2,35.9-24.2,35.9,0C436.6,160.3,400.7,160.3,400.7,136z M427.4,136c0-12.6-17.6-12.6-17.6,0
		C409.9,148.8,427.4,148.8,427.4,136z"/>
	<path class="st1" d="M400.7,136h0.5c0-5.9,2.2-10.3,5.4-13.2c3.3-2.9,7.6-4.4,12-4.4c4.4,0,8.7,1.5,12,4.4
		c3.3,2.9,5.4,7.3,5.4,13.2c0,6-2.2,10.4-5.4,13.3c-3.3,2.9-7.6,4.4-12,4.4c-4.4,0-8.7-1.5-12-4.4c-3.3-2.9-5.4-7.3-5.4-13.3H400.7
		h-0.5c0,6.2,2.3,10.9,5.8,14c3.5,3.1,8.1,4.7,12.7,4.7c4.6,0,9.2-1.6,12.7-4.7c3.5-3.1,5.8-7.8,5.8-14c0-6.2-2.3-10.9-5.8-14
		c-3.5-3.1-8.1-4.7-12.7-4.7c-4.6,0-9.2,1.5-12.7,4.7c-3.5,3.1-5.8,7.8-5.8,14H400.7z M427.4,136h0.5c0-3.3-1.2-5.8-2.9-7.4
		c-1.8-1.7-4.1-2.5-6.4-2.5c-2.3,0-4.6,0.8-6.4,2.5c-1.8,1.7-2.9,4.2-2.9,7.4v0v0c0,3.3,1.2,5.9,2.9,7.6c1.8,1.7,4.1,2.5,6.4,2.5
		c2.3,0,4.6-0.8,6.4-2.5c1.7-1.7,2.9-4.2,2.9-7.6H427.4h-0.5c0,3.1-1,5.3-2.6,6.8c-1.5,1.5-3.6,2.3-5.7,2.3c-2.1,0-4.1-0.8-5.7-2.3
		c-1.6-1.5-2.6-3.8-2.6-6.8v0c0-3,1-5.2,2.6-6.7c1.5-1.5,3.6-2.2,5.7-2.2c2.1,0,4.2,0.7,5.7,2.2c1.5,1.5,2.6,3.7,2.6,6.7H427.4z"/>
	<path class="st0" d="M474.2,118.4h3.2v35.1c-3.1,0-6.1,0-9.2,0v-15.6l-7.5,7.8h-1l-7.4-7.8v15.6c-3,0-6.1,0-9.2,0v-35.1h3.3
		l13.7,15.2L474.2,118.4z"/>
	<path class="st1" d="M474.2,118.4v0.5h2.7l0,34.6h0.5V153c-3.1,0-6.1,0-9.2,0v0.5h0.5v-16.8l-8.2,8.5h-0.6l-8.1-8.6v16.9h0.5V153
		c-3,0-6.1,0-9.2,0v0.5h0.5v-34.6h2.6l13.9,15.4l14.5-15.6L474.2,118.4v0.5V118.4l-0.4-0.3l-13.7,14.8l-13.5-15h-4V154h0.5
		c3.1,0,6.2,0,9.2,0h0.5v-14.8l6.7,7h1.2h0.2l6.8-7.1V154h0.5c3.1,0,6.1,0,9.2,0h0.5v-36.1H474l-0.1,0.2L474.2,118.4z"/>
	<path class="st0" d="M508.2,126.5c-5.2,0-7.8,0-13,0v5h11.9c0,2.7,0,5.3,0,8h-11.9c0,2,0,4,0,6.2c5.2,0,8.2,0,13.4,0
		c0,2.6,0,5.3,0,8c-8.2,0-14.2,0-22.3,0c0-11.7,0-23.4,0-35c8.1,0,13.7,0,21.9,0C508.2,121.1,508.2,123.8,508.2,126.5z"/>
	<path class="st1" d="M508.2,126.5V126c-5.2,0-7.8,0-13,0h-0.5v6h12.4v-0.5h-0.5c0,2.7,0,5.3,0,8h0.5V139h-12.4v0.5c0,2,0,4,0,6.2
		v0.5h0.5c5.2,0,8.2,0,13.4,0v-0.5h-0.5c0,2.6,0,5.3,0,8h0.5v-0.5c-8.2,0-14.2,0-22.3,0v0.5h0.5c0-11.7,0-23.4,0-35h-0.5v0.5
		c8.1,0,13.7,0,21.9,0v-0.5h-0.5c0,2.4,0,5.1,0,7.8H508.2V126V126.5h0.5c0-2.7,0-5.4,0-7.8v-0.5h-0.5c-8.2,0-13.8,0-21.9,0h-0.5v0.5
		c0,11.6,0,23.3,0,35v0.5h0.5c8.1,0,14.1,0,22.3,0h0.5v-0.5c0-2.7,0-5.4,0-8v-0.5h-0.5c-5.2,0-8.2,0-13.4,0v0.5h0.5
		c0-2.2,0-4.2,0-6.2h-0.5v0.5h12.4v-0.5c0-2.7,0-5.3,0-8V131h-11.9l0-4.5h-0.5v0.5c5.2,0,7.8,0,13,0h0.5v-0.5H508.2z"/>
	<path class="st0" d="M512.9,126.5c0-2.7,0-5.3,0-8h26c0,2.7,0,5.3,0,8h-8.6v27c-3,0-5.9,0-8.9,0v-27H512.9z"/>
	<path class="st1" d="M512.9,126.5h0.5c0-2.7,0-5.3,0-8h-0.5v0.5h26v-0.5h-0.5c0,2.7,0,5.3,0,8h0.5V126h-9.1v27.5h0.5V153
		c-3,0-5.9,0-8.9,0v0.5h0.5V126h-9V126.5h0.5H512.9v0.5h8l0,27h0.5c3,0,5.9,0,8.9,0h0.5v-27h8.6v-0.5c0-2.7,0-5.3,0-8V118h-27v0.5
		c0,2.7,0,5.3,0,8v0.5h0.5V126.5z"/>
	<path class="st2" d="M452.4,76.5V31.9c6,0,11.6,0,17.5,0v44.9c0,14.8-13.5,23.4-28.6,23.4c-15,0-29.2-8.6-29.2-23.4V31.9
		c5.9,0,11.6,0,17.5,0v44.7c0,5.5,6.2,8.1,11.7,8.1C446.7,84.7,452.4,82,452.4,76.5z"/>
	<path class="st1" d="M452.4,76.5h0.5V31.9h-0.5v0.5c6,0,11.6,0,17.5,0v-0.5h-0.5v44.9c0,7.2-3.3,12.9-8.4,16.9
		c-5.2,3.9-12.2,6-19.7,6c-7.4,0-14.6-2.1-19.9-6.1c-5.3-3.9-8.8-9.6-8.8-16.8V31.9h-0.5v0.5c5.9,0,11.6,0,17.5,0v-0.5h-0.5v44.7
		c0,1.5,0.4,2.8,1.1,3.9c1.1,1.6,2.8,2.8,4.8,3.6c2,0.8,4.2,1.1,6.3,1.1c2.8,0,5.6-0.7,7.8-2.1c2.2-1.4,3.8-3.6,3.8-6.6H452.4h-0.5
		c0,2.6-1.3,4.4-3.3,5.7c-2,1.3-4.7,2-7.3,2c-2.7,0-5.5-0.6-7.7-1.9c-1.1-0.6-2-1.4-2.6-2.4c-0.6-0.9-1-2-1-3.3V31.4h-0.5
		c-5.9,0-11.6,0-17.5,0h-0.5v45.4c0,7.6,3.6,13.6,9.2,17.7c5.5,4.1,12.9,6.2,20.5,6.2c7.6,0,14.9-2.2,20.3-6.3
		c5.4-4.1,8.8-10.1,8.8-17.6V31.4h-0.5c-5.9,0-11.5,0-17.5,0h-0.5v45.1H452.4z"/>
	<path class="st2" d="M361.3,83.6H402c0,7.1,0,11.1,0,17c-19.3,0-39.2,0-58.3,0V32.2c8.1,0,17.6,0,17.6,0S361.3,37.1,361.3,83.6z"/>
	<path class="st1" d="M361.3,83.6v0.5H402v-0.5h-0.5c0,7.1,0,11.1,0,17h0.5v-0.5c-19.3,0-39.2,0-58.3,0v0.5h0.5V32.2h-0.5v0.5
		c8.1,0,17.6,0,17.6,0v-0.5h-0.5c0,0,0,0.3,0,1.5c0,3.6,0,15,0,49.9v0.5h0.5V83.6h0.5c0-23.2,0-36.1,0-43.1c0-3.5,0-5.6,0-6.8
		c0-1.2,0-1.5,0-1.5v-0.5h-0.5c0,0-9.5,0-17.6,0h-0.5v69.4h0.5c19.1,0,39,0,58.3,0h0.5v-0.5c0-5.9,0-9.9,0-17v-0.5h-41.2V83.6h0.5
		H361.3z"/>
	<path class="st0" d="M61.8,58.1h36.4c3.6-14.7,13.8-26,31.5-26h0.8h15.2v17.1h-18.4v8.5h18.4v17.1h-18.4v8.5h18.4v17.1h-15.2h-0.8
		c-17.7,0-27.8-10.6-31.5-25.5H80c3.8,21.6,21.2,37.4,46.9,37.4c28.4,0,51.3-19.7,51.3-46c0-26.3-21.4-45.6-49.7-45.6l-2-2.3V3.7
		c36.4,0,70,28.8,70,62.6c0,33.8-33.2,63-69.5,63s-63.9-29.2-65.1-63L61.8,58.1"/>
	<path class="st1" d="M61.8,58.6h36.8l0.1-0.4c1.8-7.3,5.2-13.7,10.3-18.3c5.1-4.6,12-7.4,20.7-7.4h0.8h14.7v16.1l-18.4,0v9.5h18.4
		v16.1l-18.4,0v9.5h18.4v16.1h-14.7h-0.8c-8.8,0-15.6-2.6-20.7-7c-5.1-4.4-8.5-10.7-10.3-18.1l-0.1-0.4H79.4l0.1,0.6
		c1.9,10.9,7.3,20.4,15.4,27.1c8.1,6.7,19,10.7,32,10.7c14.3,0,27.3-5,36.6-13.3c9.4-8.3,15.2-19.9,15.2-33.2
		c0-13.3-5.4-24.8-14.4-33c-9-8.2-21.5-13.1-35.8-13.1v0.5l0.4-0.3l-1.9-2.2V3.7h-0.5v0.5c18.1,0,35.5,7.2,48.3,18.5
		C187.7,34,196,49.6,196,66.3c0,16.7-8.2,32.4-21,43.8c-12.7,11.4-30,18.7-48,18.7c-36,0-63.4-29-64.6-62.5l-0.5,0l0.5,0l-0.1-8.2
		l-1,0l0.1,8.2l0,0c1.2,34.1,29,63.5,65.6,63.5c18.3,0,35.8-7.3,48.7-19C188.6,99.2,197,83.4,197,66.3c0-17.1-8.5-32.8-21.5-44.4
		c-13-11.5-30.6-18.7-49-18.7H126v15.4l2.3,2.6h0.2c14,0,26.3,4.8,35.1,12.8c8.8,8,14.1,19.3,14.1,32.3c0,13-5.7,24.4-14.8,32.5
		c-9.2,8.1-21.9,13-36,13c-12.7,0-23.4-3.9-31.3-10.5c-7.9-6.6-13.2-15.8-15.1-26.5L80,74.9v0.5h18.2v-0.5L97.7,75
		c1.9,7.5,5.4,14,10.7,18.6c5.3,4.6,12.4,7.3,21.3,7.3h0.8h15.7V82.8h-18.4v-7.5h18.4V57.2h-18.4v-7.5h18.4V31.6h-15.7h-0.8
		c-9,0-16.1,2.9-21.4,7.6C103,44,99.5,50.6,97.7,58l0.5,0.1v-0.5H61.8V58.6L61.8,58.6z"/>
	<polygon class="st2" points="303.6,68.8 303.2,68.8 291.6,100.1 274.2,100.1 274.2,97.5 300.7,31.8 306.2,31.8 332.9,97.5 
		332.9,100.1 315.5,100.1 	"/>
	<polygon class="st1" points="303.6,68.8 303.6,68.3 303.2,68.3 302.9,68.3 291.3,99.6 274.7,99.6 274.7,97.6 301,32.3 305.9,32.3 
		332.4,97.6 332.4,99.6 315.8,99.6 303.9,68.3 303.6,68.3 303.6,68.8 303.1,69 315.2,100.6 333.4,100.6 333.4,97.4 306.5,31.3 
		300.4,31.3 273.7,97.4 273.7,100.6 291.9,100.6 303.5,69.3 303.6,69.3 303.6,68.8 303.1,69 	"/>
	<polygon class="st2" points="33.4,63.2 33.8,63.2 45.4,31.9 62.8,31.9 62.8,34.5 36.3,100.2 30.8,100.2 4.1,34.5 4.1,31.9 
		21.5,31.9 	"/>
	<polygon class="st1" points="33.4,63.2 33.4,63.7 33.8,63.7 34.1,63.7 45.7,32.4 62.3,32.4 62.3,34.4 36,99.7 31.1,99.7 4.6,34.4 
		4.6,32.4 21.2,32.4 33.1,63.7 33.4,63.7 33.4,63.2 33.9,63 21.8,31.4 3.6,31.4 3.6,34.6 30.5,100.7 36.6,100.7 63.3,34.6 
		63.3,31.4 45.1,31.4 33.5,62.7 33.4,62.7 33.4,63.2 33.9,63 	"/>
	<polygon class="st2" points="539,31.9 521.5,31.9 510,52.7 508.9,52.7 497.6,31.9 480,31.9 481,33.6 498.5,65.7 480.3,98.4 
		479.3,100.2 496.7,100.2 508,80.1 509.3,80.1 521.4,100.2 538.8,100.2 538.8,98.4 520,66.2 538,33.7 	"/>
	<polygon class="st1" points="539,31.9 539,31.4 521.2,31.4 509.7,52.2 509.2,52.2 497.9,31.4 479.1,31.4 480.6,33.8 497.9,65.7 
		479.9,98.2 478.4,100.7 497,100.7 508.3,80.6 509,80.6 521.1,100.7 539.3,100.7 539.3,98.3 520.6,66.2 538.4,33.9 538.4,33.9 
		539.8,31.4 539,31.4 539,31.9 538.6,31.7 537.6,33.5 519.4,66.2 538.3,98.5 538.3,99.7 521.7,99.7 509.6,79.6 507.7,79.6 
		496.4,99.7 480.1,99.7 480.7,98.6 499.1,65.7 481.4,33.4 480.9,32.4 497.3,32.4 508.6,53.2 510.3,53.2 521.8,32.4 539,32.4 
		539,31.9 538.6,31.7 	"/>
	<path class="st2" d="M263.4,97.6v2.5h-19.7L231.9,80h-9.2v20.1c-5.9,0-11.9,0-17.6,0c0-22.7,0-45.5,0-68.3c10,0,20.2,0,30.3,0
		c27.1,0.1,32,32.4,14.6,44.1L263.4,97.6z M235.3,47.5c-4.1-0.1-8.5,0-12.6,0c0,5.6,0,11.6,0,17.1h12.6
		C244.8,64.6,245.3,47.6,235.3,47.5z"/>
	<path class="st1" d="M263.4,97.6h-0.5v2H244l-11.8-20.1h-10v20.6h0.5v-0.5c-5.9,0-11.9,0-17.6,0v0.5h0.5c0-22.7,0-45.5,0-68.3h-0.5
		v0.5c10,0,20.2,0,30.3,0h0c8.1,0,14.2,3,18.2,7.4c4,4.4,6.1,10.3,6.1,16.2c0,7.6-3.3,15.1-10,19.6l-0.4,0.3L263,97.9L263.4,97.6
		h-0.5H263.4l0.4-0.3l-13.4-21.7l-0.4,0.3l0.3,0.4c7-4.7,10.4-12.6,10.4-20.4c0-6.1-2.1-12.3-6.3-16.9c-4.2-4.6-10.6-7.7-19-7.7h0
		c-10.1,0-20.3,0-30.3,0h-0.5v0.5c0,22.8,0,45.6,0,68.3v0.5h0.5c5.7,0,11.7,0,17.6,0h0.5V80.5h8.4l11.8,20.1h20.5v-3.1l-0.1-0.1
		L263.4,97.6z M235.3,47.5l0-0.5c-1.4,0-2.8,0-4.2,0c-2.8,0-5.7,0-8.4,0h-0.5v0.5c0,5.6,0,11.6,0,17.1v0.5h13.1
		c2.6,0,4.6-1.2,5.9-2.9c1.3-1.7,2-4,2-6.3c0-2.2-0.6-4.4-1.9-6.1c-1.3-1.7-3.3-2.8-5.9-2.8L235.3,47.5l0-0.5L235.3,47.5l0,0.5
		c2.3,0,4,1,5.1,2.5c1.1,1.5,1.7,3.5,1.7,5.5c0,2.1-0.6,4.1-1.8,5.7c-1.2,1.5-2.8,2.5-5.1,2.5h-12.6v0.5h0.5c0-5.5,0-11.5,0-17.1
		h-0.5V48c2.7,0,5.6,0,8.4,0c1.4,0,2.8,0,4.2,0l0,0l0,0L235.3,47.5z"/>
</g>
</svg>
