<?xml version="1.0" standalone="no"?>
<!DOCTYPE svg PUBLIC "-//W3C//DTD SVG 20010904//EN"
 "http://www.w3.org/TR/2001/REC-SVG-20010904/DTD/svg10.dtd">
<svg version="1.0" xmlns="http://www.w3.org/2000/svg"
 width="626.000000pt" height="626.000000pt" viewBox="0 0 626.000000 626.000000"
 preserveAspectRatio="xMidYMid meet">
<metadata>
Created by potrace 1.11, written by Peter Selinger 2001-2013
</metadata>
<g transform="translate(0.000000,626.000000) scale(0.100000,-0.100000)"
fill="#000000" stroke="none">
<path d="M3133 5919 c3 -188 10 -345 14 -349 4 -5 42 -11 83 -14 41 -4 98 -8
125 -11 198 -16 400 -59 590 -126 114 -40 367 -162 465 -225 487 -312 839
-755 1018 -1279 32 -95 79 -266 88 -325 3 -19 8 -38 10 -42 17 -28 24 -477 11
-718 -10 -203 -98 -502 -221 -755 -127 -264 -277 -470 -495 -684 -381 -371
-848 -600 -1361 -666 -140 -18 -562 -17 -695 1 -424 59 -922 291 -1230 573
-265 245 -437 465 -574 741 -117 235 -203 495 -226 684 l-7 56 474 0 474 0 23
-79 c84 -289 291 -582 550 -776 155 -117 390 -224 566 -258 132 -26 162 -28
923 -34 l732 -5 0 346 0 346 -495 0 -495 0 0 240 0 240 500 0 500 0 0 345 0
345 -500 0 -500 0 0 225 0 225 495 0 495 0 0 346 0 346 -722 -5 c-693 -6 -789
-8 -887 -22 -70 -11 -305 -91 -396 -136 -273 -134 -535 -398 -678 -684 -42
-84 -107 -261 -107 -292 0 -11 -145 -13 -817 -13 -450 0 -827 -3 -839 -6 -20
-5 -21 -11 -18 -137 3 -165 14 -442 19 -482 10 -86 17 -139 20 -159 2 -11 9
-55 15 -96 65 -417 268 -903 528 -1265 103 -143 177 -229 332 -389 302 -309
643 -540 1040 -701 240 -98 537 -176 756 -200 32 -4 66 -8 74 -10 8 -2 60 -7
115 -10 55 -4 116 -10 135 -14 41 -9 232 -7 275 2 17 3 55 9 85 12 119 12 159
17 270 36 692 117 1339 487 1821 1040 74 84 231 296 293 395 201 321 351 724
421 1128 32 188 39 281 40 516 0 346 -63 713 -182 1045 -236 663 -733 1262
-1347 1624 -403 237 -824 375 -1288 422 -62 6 -116 13 -120 15 -4 3 -47 7 -94
10 l-87 5 6 -342z"/>
</g>
</svg>
