<?xml version="1.0" standalone="no"?>
<!DOCTYPE svg PUBLIC "-//W3C//DTD SVG 20010904//EN"
 "http://www.w3.org/TR/2001/REC-SVG-20010904/DTD/svg10.dtd">
<svg version="1.0" xmlns="http://www.w3.org/2000/svg"
 width="568.000000pt" height="568.000000pt" viewBox="0 0 568.000000 568.000000"
 preserveAspectRatio="xMidYMid meet">
<metadata>
Created by potrace 1.11, written by Peter Selinger 2001-2013
</metadata>
<g transform="translate(0.000000,568.000000) scale(0.100000,-0.100000)"
fill="#000000" stroke="none">
<path d="M2750 5391 l-25 -6 0 -303 0 -303 46 -52 46 -52 94 -2 c83 -2 243
-17 303 -29 354 -67 622 -180 877 -370 245 -182 435 -422 559 -704 18 -40 33
-78 34 -84 1 -6 7 -24 14 -41 27 -69 58 -201 77 -335 16 -107 13 -447 -4 -515
-5 -22 -12 -53 -15 -70 -39 -230 -164 -500 -330 -715 -71 -92 -292 -310 -314
-310 -4 0 -14 -9 -22 -20 -8 -11 -20 -20 -27 -20 -7 0 -13 -4 -13 -10 0 -5 -6
-10 -14 -10 -8 0 -16 -3 -18 -7 -5 -11 -66 -53 -77 -53 -5 0 -11 -4 -13 -9 -4
-12 -258 -143 -258 -133 0 4 -4 3 -8 -3 -10 -14 -227 -92 -302 -109 -14 -3
-63 -15 -110 -26 -47 -10 -107 -22 -135 -26 -27 -3 -63 -8 -80 -10 -91 -12
-356 -18 -440 -9 -22 2 -67 6 -101 9 -33 2 -71 7 -85 10 -13 3 -40 8 -59 11
-59 8 -88 15 -117 26 -16 6 -29 10 -31 10 -6 -3 -62 13 -117 31 -279 95 -484
219 -682 413 -51 49 -110 112 -130 139 -21 27 -42 54 -48 60 -5 7 -14 19 -20
27 -5 9 -23 35 -39 59 -86 130 -182 348 -225 515 -30 114 -33 132 -18 137 6 2
161 4 342 3 l330 0 13 -45 c65 -215 182 -444 287 -558 101 -111 244 -232 274
-232 5 0 11 -4 13 -9 2 -4 41 -26 88 -49 98 -46 213 -84 297 -97 11 -2 30 -6
40 -9 43 -14 166 -18 536 -20 383 -2 387 -2 388 19 0 25 0 629 -1 672 l0 32
-322 0 c-178 0 -343 0 -368 0 l-45 1 1 132 c1 73 2 140 3 149 1 15 34 17 361
17 198 -1 363 2 366 5 7 7 8 707 1 714 -3 2 -168 5 -366 5 -265 0 -361 3 -362
11 -1 7 -2 72 -3 146 -1 95 2 135 11 138 7 3 171 5 365 6 l353 2 2 355 c2 209
-1 356 -7 360 -13 8 -774 4 -840 -4 -85 -11 -218 -44 -295 -73 -63 -23 -194
-86 -220 -105 -5 -5 -37 -28 -70 -52 -159 -118 -291 -282 -388 -484 -27 -56
-50 -108 -51 -115 -2 -7 -6 -19 -9 -27 -14 -34 -47 -144 -47 -156 0 -6 -6 -14
-12 -16 -7 -2 -338 -4 -735 -3 l-722 1 5 -171 c4 -171 11 -318 18 -365 2 -14
6 -50 10 -80 10 -75 43 -240 65 -320 103 -380 312 -771 565 -1058 84 -94 322
-321 348 -331 6 -2 19 -11 29 -20 34 -31 50 -42 141 -103 242 -162 580 -312
818 -363 8 -2 49 -11 90 -20 41 -9 86 -18 100 -20 14 -2 39 -5 55 -8 137 -24
433 -35 580 -22 164 14 219 22 340 46 55 12 110 23 122 25 12 2 76 20 142 39
253 72 511 190 765 348 19 12 47 30 151 102 115 78 356 296 460 416 101 116
215 263 215 278 0 5 7 14 15 21 9 7 41 58 72 114 32 56 61 102 65 104 4 2 8 8
8 14 0 5 16 43 35 84 19 40 35 78 35 84 0 5 4 10 8 10 5 0 9 6 10 13 0 6 19
63 41 124 22 62 43 123 45 135 3 13 7 32 10 43 20 77 32 133 42 195 2 19 7 46
9 60 22 121 22 391 0 555 -11 84 -52 277 -65 310 -5 11 -22 61 -38 110 -46
138 -128 316 -189 413 -18 28 -34 55 -35 60 -3 9 -139 205 -148 212 -3 3 -19
23 -36 44 -67 90 -248 277 -354 367 -35 29 -73 61 -83 70 -82 73 -336 240
-462 304 -38 19 -77 40 -85 45 -92 59 -518 212 -659 236 -14 3 -42 9 -61 14
-19 5 -53 11 -75 15 -23 3 -52 8 -65 10 -24 5 -51 9 -142 20 -24 3 -90 8 -148
11 -58 3 -109 6 -115 8 -5 1 -21 0 -35 -3z"/>
</g>
</svg>
